{"title":"Unthinkable.2010.720p.BRRip.x264.aac.mp4-anoXmous","uid":6877057,"size":733354238,"categoryP":"video","categoryS":"hd___movies","magnet":"?xt=urn:btih:50f5d15a56ad409af9d65d1c5720a0cb5be4a219&amp;dn=Unthinkable.2010.720p.BRRip.x264.aac.mp4-anoXmous&amp;tr=udp%3A%2F%2Ftracker.openbittorrent.com%3A80&amp;tr=udp%3A%2F%2Fopen.demonii.com%3A1337&amp;tr=udp%3A%2F%2Ftracker.coppersurfer.tk%3A6969&amp;tr=udp%3A%2F%2Fexodus.desync.com%3A6969","seeders":1,"leechers":0,"uploader":"anoXmous","files":-1,"time":1323504938,"description":"Unthinkable.2010.720p.BRRip.x264.aac.mp4-anoXmous\n\nFormat                           : MPEG-4\nFormat profile                   : Base Media\nCodec ID                         : isom\nFile size                        : 699 MiB\nDuration                         : 1h 37mn\nOverall bit rate mode            : Variable\nOverall bit rate                 : 1 007 Kbps\n\nVideo\nID                               : 1\nFormat                           : AVC\nFormat/Info                      : Advanced Video Codec\nFormat profile                   : &lt;a class=&quot;__cf_email__&quot; href=&quot;/cdn-cgi/l/email-protection&quot; data-cfemail=&quot;cf87a6a8a78f83fbe1fe&quot;&gt;[email&amp;#160;protected]&lt;/a&gt;&lt;script cf-hash='f9e31' type=&quot;text/javascript&quot;&gt;\n/* &lt;![CDATA[ */!function(){try{var t=&quot;currentScript&quot;in document?document.currentScript:function(){for(var t=document.getElementsByTagName(&quot;script&quot;),e=t.length;e--;)if(t[e].getAttribute(&quot;cf-hash&quot;))return t[e]}();if(t&amp;&amp;t.previousSibling){var e,r,n,i,c=t.previousSibling,a=c.getAttribute(&quot;data-cfemail&quot;);if(a){for(e=&quot;&quot;,r=parseInt(a.substr(0,2),16),n=2;a.length-n;n+=2)i=parseInt(a.substr(n,2),16)^r,e+=String.fromCharCode(i);e=document.createTextNode(e),c.parentNode.replaceChild(e,c)}}}catch(u){}}();/* ]]&gt; */&lt;/script&gt;\nFormat settings, CABAC           : Yes\nFormat settings, ReFrames        : 4 frames\nCodec ID                         : avc1\nCodec ID/Info                    : Advanced Video Coding\nDuration                         : 1h 37mn\nBit rate                         : 935 Kbps\nMaximum bit rate                 : 11.1 Mbps\nWidth                            : 1 280 pixels\nHeight                           : 688 pixels\nDisplay aspect ratio             : 16:9\nOriginal display aspect ratio    : 1.850\nFrame rate mode                  : Constant\nFrame rate                       : 23.976 fps\nColor space                      : YUV\nChroma subsampling               : 4:2:0\nBit depth                        : 8 bits\nScan type                        : Progressive\nBits/(Pixel*Frame)               : 0.044\nStream size                      : 649 MiB (93%)\nWriting library                  : x264 core 119 r2106 07efeb4\n\n\nAudio\nID                               : 2\nFormat                           : AAC\nFormat/Info                      : Advanced Audio Codec\nFormat profile                   : LC\nCodec ID                         : 40\nDuration                         : 1h 37mn\nBit rate mode                    : Variable\nBit rate                         : 68.8 Kbps\nMaximum bit rate                 : 123 Kbps\nChannel(s)                       : 2 channels\nChannel positions                : Front: L R\nSampling rate                    : 48.0 KHz\nCompression mode                 : Lossy\nStream size                      : 47.8 MiB (7%)\n\n                                SUB:\nUnthinkable.2010.720p.BRRip.x264.aac.mp4-anoXmousus_swe.srt\n &lt;a href=&quot;\nhttp://www.imdb.com/title/tt0914863/&quot; rel=&quot;nofollow&quot; target=&quot;_NEW&quot;&gt;\nhttp://www.imdb.com/title/tt0914863/&lt;/a&gt;\n\n+++++++ This work very fine with PSP and XBOX :) +++++++++\n","torrent":{"xt":"urn:btih:50f5d15a56ad409af9d65d1c5720a0cb5be4a219","amp;dn":"Unthinkable.2010.720p.BRRip.x264.aac.mp4-anoXmous","amp;tr":["udp%3A%2F%2Ftracker.openbittorrent.com%3A80","udp%3A%2F%2Fopen.demonii.com%3A1337","udp%3A%2F%2Ftracker.coppersurfer.tk%3A6969","udp%3A%2F%2Fexodus.desync.com%3A6969"],"infoHash":"50f5d15a56ad409af9d65d1c5720a0cb5be4a219","infoHashBuffer":{"type":"Buffer","data":[80,245,209,90,86,173,64,154,249,214,93,28,87,32,160,203,91,228,162,25]},"announce":[],"urlList":[]}}